<?xml version="1.0" encoding="UTF-8" standalone="no"?>
<!DOCTYPE svg PUBLIC "-//W3C//DTD SVG 1.1//EN" "http://www.w3.org/Graphics/SVG/1.1/DTD/svg11.dtd">
<svg width="100%" height="100%" viewBox="0 0 40 40" version="1.1" xmlns="http://www.w3.org/2000/svg" xmlns:xlink="http://www.w3.org/1999/xlink" xml:space="preserve" xmlns:serif="http://www.serif.com/" style="fill-rule:evenodd;clip-rule:evenodd;stroke-linejoin:round;stroke-miterlimit:2;">
    <path d="M13.974,4.132L12.542,4.564C11.265,4.949 10.124,5.69 9.254,6.702C8.384,7.713 7.822,8.952 7.632,10.272C7.038,14.408 8.366,19.244 11.568,24.79C14.762,30.322 18.278,33.886 22.148,35.446C23.392,35.947 24.753,36.081 26.07,35.831C27.387,35.581 28.605,34.958 29.578,34.036L30.664,33.008C31.368,32.342 31.805,31.442 31.896,30.477C31.986,29.513 31.723,28.548 31.156,27.762L28.444,24.002C28.077,23.494 27.561,23.114 26.968,22.915C26.374,22.715 25.733,22.707 25.134,22.89L21.032,24.144L20.926,24.164C20.474,24.23 19.432,23.252 18.132,21C16.772,18.644 16.488,17.266 16.864,16.91L18.952,14.964C19.715,14.253 20.235,13.32 20.441,12.298C20.647,11.276 20.528,10.215 20.1,9.264L18.78,6.322C18.382,5.436 17.675,4.725 16.791,4.322C15.907,3.919 14.906,3.851 13.976,4.132L13.974,4.132ZM16.954,7.142L18.276,10.084C18.533,10.654 18.605,11.291 18.482,11.905C18.358,12.518 18.046,13.077 17.588,13.504L15.496,15.452C14.156,16.718 14.6,18.884 16.398,22C18.092,24.932 19.636,26.38 21.294,26.128L21.542,26.076L25.718,24.802C25.918,24.741 26.131,24.743 26.329,24.81C26.527,24.876 26.7,25.003 26.822,25.172L29.534,28.932C29.818,29.325 29.95,29.808 29.904,30.29C29.859,30.773 29.64,31.223 29.288,31.556L28.202,32.584C27.507,33.242 26.637,33.687 25.697,33.865C24.756,34.043 23.784,33.948 22.896,33.59C19.5,32.222 16.29,28.968 13.3,23.79C10.304,18.6 9.092,14.186 9.612,10.556C9.747,9.613 10.149,8.727 10.771,8.005C11.392,7.283 12.207,6.753 13.12,6.478L14.554,6.046C15.019,5.906 15.519,5.94 15.96,6.142C16.402,6.344 16.755,6.699 16.954,7.142Z" style="fill:rgb(73,225,189);fill-rule:nonzero;"/>
</svg>
