<?xml version="1.0" encoding="UTF-8" standalone="no"?>
<!DOCTYPE svg PUBLIC "-//W3C//DTD SVG 1.1//EN" "http://www.w3.org/Graphics/SVG/1.1/DTD/svg11.dtd">
<svg width="100%" height="100%" viewBox="0 0 20 20" version="1.1" xmlns="http://www.w3.org/2000/svg" xmlns:xlink="http://www.w3.org/1999/xlink" xml:space="preserve" xmlns:serif="http://www.serif.com/" style="fill-rule:evenodd;clip-rule:evenodd;stroke-linejoin:round;stroke-miterlimit:2;">
    <path d="M5.88,2.015L6.853,1.723C7.385,1.562 7.958,1.601 8.465,1.831C8.971,2.062 9.376,2.469 9.604,2.977L10.356,4.648C10.552,5.085 10.607,5.572 10.512,6.041C10.418,6.51 10.178,6.938 9.828,7.264L8.583,8.425C8.547,8.459 8.524,8.505 8.518,8.554C8.482,8.885 8.706,9.529 9.223,10.425C9.598,11.076 9.939,11.533 10.228,11.789C10.43,11.968 10.541,12.007 10.588,11.993L12.263,11.481C12.721,11.341 13.211,11.348 13.664,11.5C14.117,11.653 14.512,11.943 14.792,12.331L15.859,13.811C16.184,14.261 16.334,14.814 16.282,15.366C16.23,15.919 15.98,16.433 15.577,16.815L14.838,17.515C14.447,17.886 13.965,18.15 13.441,18.279C12.918,18.409 12.369,18.401 11.849,18.256C9.554,17.615 7.497,15.678 5.653,12.486C3.808,9.289 3.16,6.536 3.757,4.225C3.891,3.705 4.157,3.229 4.529,2.842C4.901,2.455 5.366,2.17 5.88,2.015ZM6.241,3.213C5.933,3.305 5.653,3.476 5.43,3.708C5.207,3.94 5.047,4.226 4.967,4.538C4.465,6.481 5.039,8.922 6.736,11.861C8.43,14.796 10.254,16.513 12.186,17.053C12.498,17.139 12.827,17.144 13.141,17.066C13.455,16.988 13.743,16.83 13.978,16.608L14.717,15.908C14.901,15.734 15.015,15.5 15.038,15.249C15.062,14.998 14.993,14.746 14.846,14.542L13.779,13.063C13.652,12.886 13.473,12.754 13.266,12.685C13.06,12.615 12.837,12.612 12.629,12.676L10.95,13.19C9.975,13.48 9.09,12.696 8.14,11.05C7.5,9.942 7.202,9.083 7.276,8.416C7.315,8.069 7.476,7.749 7.731,7.511L8.976,6.35C9.135,6.202 9.244,6.007 9.287,5.794C9.33,5.581 9.305,5.359 9.216,5.161L8.464,3.489C8.36,3.259 8.176,3.074 7.946,2.969C7.716,2.864 7.456,2.846 7.214,2.919L6.241,3.213Z" style="fill:rgb(209,212,223);fill-rule:nonzero;"/>
</svg>
