<?xml version="1.0" encoding="UTF-8" standalone="no"?><!DOCTYPE svg PUBLIC "-//W3C//DTD SVG 1.1//EN" "http://www.w3.org/Graphics/SVG/1.1/DTD/svg11.dtd"><svg width="100%" height="100%" viewBox="0 0 88 88" version="1.1" xmlns="http://www.w3.org/2000/svg" xmlns:xlink="http://www.w3.org/1999/xlink" xml:space="preserve" xmlns:serif="http://www.serif.com/" style="fill-rule:evenodd;clip-rule:evenodd;stroke-linejoin:round;stroke-miterlimit:1.41421;"><g><path d="M79.42,51.375l0,-2.77c0,-11.198 -9.077,-20.275 -20.275,-20.275c-11.198,0 -20.275,9.077 -20.275,20.275l0,2.77c0,11.197 9.077,20.275 20.275,20.275c11.198,0 20.275,-9.078 20.275,-20.275Z" style="fill:url(#_Linear1);fill-rule:nonzero;"/><path d="M53.75,32.74c-4.672,0 -9.239,1.386 -13.124,3.981c-3.884,2.596 -6.912,6.286 -8.699,10.602c-1.788,4.317 -2.255,9.067 -1.343,13.649c0.913,4.582 3.163,8.791 6.468,12.093c3.304,3.303 7.514,5.552 12.096,6.462c4.583,0.911 9.332,0.441 13.648,-1.348c4.316,-1.789 8.004,-4.818 10.598,-8.704c2.594,-3.885 3.978,-8.453 3.976,-13.125c-0.008,-6.261 -2.499,-12.263 -6.928,-16.689c-4.428,-4.427 -10.431,-6.916 -16.692,-6.921Zm19.38,23.61c0.002,3.833 -1.133,7.581 -3.261,10.77c-2.129,3.188 -5.155,5.674 -8.696,7.142c-3.541,1.468 -7.438,1.854 -11.198,1.107c-3.76,-0.747 -7.214,-2.592 -9.925,-5.302c-2.712,-2.71 -4.558,-6.163 -5.307,-9.922c-0.749,-3.76 -0.365,-7.657 1.101,-11.199c1.467,-3.542 3.951,-6.569 7.138,-8.699c3.187,-2.13 6.934,-3.267 10.768,-3.267c5.137,0.003 10.063,2.044 13.697,5.676c3.634,3.631 5.678,8.557 5.683,13.694Z" style="fill:#142924;fill-rule:nonzero;"/><path d="M55.41,55.89l0,-10.08c0,-0.562 -0.224,-1.102 -0.621,-1.499c-0.398,-0.398 -0.937,-0.621 -1.499,-0.621c-0.562,0 -1.102,0.223 -1.499,0.621c-0.398,0.397 -0.621,0.937 -0.621,1.499l0,11.83l10.74,10.74c0.398,0.398 0.937,0.621 1.5,0.621c0.562,0 1.102,-0.223 1.5,-0.621c0.398,-0.398 0.621,-0.937 0.621,-1.5c0,-0.563 -0.223,-1.102 -0.621,-1.5l-9.5,-9.49Z" style="fill:#142924;fill-rule:nonzero;"/><path d="M32.41,76.65l-17.9,0c-1.574,-0.003 -3.082,-0.63 -4.194,-1.743c-1.112,-1.114 -1.736,-2.623 -1.736,-4.197l0,-56.76c0.003,-1.572 0.628,-3.079 1.74,-4.19c1.111,-1.112 2.618,-1.737 4.19,-1.74l46.29,0c1.574,0 3.083,0.624 4.197,1.736c1.113,1.112 1.74,2.62 1.743,4.194l0,16.26l-4.33,0l0,-16.26c0,-0.215 -0.042,-0.428 -0.125,-0.626c-0.083,-0.198 -0.204,-0.379 -0.356,-0.53c-0.152,-0.152 -0.333,-0.272 -0.532,-0.353c-0.199,-0.081 -0.412,-0.122 -0.627,-0.121l-46.29,0c-0.432,0 -0.847,0.172 -1.153,0.477c-0.305,0.306 -0.477,0.721 -0.477,1.153l0,56.76c-0.001,0.215 0.04,0.428 0.121,0.627c0.081,0.199 0.201,0.38 0.353,0.532c0.151,0.152 0.331,0.273 0.53,0.356c0.198,0.083 0.411,0.125 0.626,0.125l17.93,0l0,4.3Z" style="fill:#142924;fill-rule:nonzero;"/><rect x="18.33" y="21.78" width="37.97" height="4.24" style="fill:#142924;"/><rect x="18.33" y="36.11" width="10.99" height="4.25" style="fill:#142924;"/></g><defs><linearGradient id="_Linear1" x1="0" y1="0" x2="1" y2="0" gradientUnits="userSpaceOnUse" gradientTransform="matrix(2.65258e-15,43.3199,-43.3199,2.65258e-15,59.145,28.33)"><stop offset="0" style="stop-color:#142924;stop-opacity:0.298039"/><stop offset="1" style="stop-color:#fff;stop-opacity:0"/></linearGradient></defs></svg>