<?xml version="1.0" encoding="UTF-8" standalone="no"?>
<!DOCTYPE svg PUBLIC "-//W3C//DTD SVG 1.1//EN" "http://www.w3.org/Graphics/SVG/1.1/DTD/svg11.dtd">
<svg width="100%" height="100%" viewBox="0 0 24 24" version="1.1" xmlns="http://www.w3.org/2000/svg" xmlns:xlink="http://www.w3.org/1999/xlink" xml:space="preserve" xmlns:serif="http://www.serif.com/" style="fill-rule:evenodd;clip-rule:evenodd;stroke-linejoin:round;stroke-miterlimit:2;">
    <path d="M12,0C5.372,0 0,5.372 0,12C0,18.628 5.372,24 12,24C18.628,24 24,18.628 24,12C24,5.372 18.628,0 12,0ZM14.842,8.293L13.039,8.293C12.825,8.293 12.588,8.574 12.588,8.948L12.588,10.25L14.844,10.25L14.503,12.108L12.588,12.108L12.588,17.684L10.459,17.684L10.459,12.108L8.528,12.108L8.528,10.25L10.459,10.25L10.459,9.158C10.459,7.59 11.546,6.316 13.039,6.316L14.842,6.316L14.842,8.293Z" style="fill:white;fill-opacity:0.8;fill-rule:nonzero;"/>
</svg>
