<?xml version="1.0" encoding="UTF-8" standalone="no"?>
<!DOCTYPE svg PUBLIC "-//W3C//DTD SVG 1.1//EN" "http://www.w3.org/Graphics/SVG/1.1/DTD/svg11.dtd">
<svg width="100%" height="100%" viewBox="0 0 34 34" version="1.1" xmlns="http://www.w3.org/2000/svg" xmlns:xlink="http://www.w3.org/1999/xlink" xml:space="preserve" xmlns:serif="http://www.serif.com/" style="fill-rule:evenodd;clip-rule:evenodd;stroke-linejoin:round;stroke-miterlimit:2;">
    <path d="M34,25.007C32.317,27.973 29.738,30.403 26.587,31.989C23.437,33.575 19.858,34.247 16.302,33.919C12.746,33.591 9.374,32.278 6.611,30.146C3.848,28.014 1.819,25.159 0.78,21.942C-0.258,18.725 -0.26,15.29 0.775,12.073C1.811,8.855 3.837,5.998 6.598,3.864C9.359,1.73 12.73,0.414 16.286,0.083C19.841,-0.248 23.421,0.42 26.573,2.004L24.434,5.774C22.075,4.589 19.395,4.088 16.733,4.336C14.072,4.584 11.548,5.569 9.481,7.166C7.414,8.764 5.898,10.903 5.122,13.311C4.347,15.72 4.348,18.291 5.126,20.7C5.903,23.108 7.422,25.245 9.491,26.841C11.559,28.437 14.083,29.42 16.745,29.665C19.407,29.911 22.086,29.408 24.445,28.221C26.803,27.033 28.734,25.214 29.994,22.994L34,25.007Z" style="fill:white;fill-rule:nonzero;"/>
    <path d="M17.273,26C22.394,26 26.546,21.971 26.546,17C26.546,12.029 22.394,8 17.273,8C12.152,8 8,12.029 8,17C8,21.971 12.152,26 17.273,26Z" style="fill:white;fill-rule:nonzero;"/>
</svg>
