<?xml version="1.0" encoding="UTF-8" standalone="no"?><!DOCTYPE svg PUBLIC "-//W3C//DTD SVG 1.1//EN" "http://www.w3.org/Graphics/SVG/1.1/DTD/svg11.dtd"><svg width="100%" height="100%" viewBox="0 0 88 88" version="1.1" xmlns="http://www.w3.org/2000/svg" xmlns:xlink="http://www.w3.org/1999/xlink" xml:space="preserve" xmlns:serif="http://www.serif.com/" style="fill-rule:evenodd;clip-rule:evenodd;stroke-linejoin:round;stroke-miterlimit:1.41421;"><g><path d="M45.75,68.635c13.503,0 24.45,-10.947 24.45,-24.45c0,-13.503 -10.947,-24.45 -24.45,-24.45c-13.504,0 -24.45,10.947 -24.45,24.45c0,13.503 10.946,24.45 24.45,24.45Z" style="fill:url(#_Linear1);fill-rule:nonzero;"/><path d="M42.61,43.055l-8.23,-8.24c-0.189,-0.193 -0.414,-0.345 -0.663,-0.448c-0.25,-0.103 -0.517,-0.155 -0.787,-0.152c-0.266,0 -0.53,0.053 -0.775,0.156c-0.246,0.103 -0.468,0.254 -0.655,0.444l-10.86,10.84c-0.193,0.187 -0.347,0.41 -0.452,0.658c-0.106,0.247 -0.16,0.513 -0.16,0.782c0,0.269 0.054,0.535 0.16,0.782c0.105,0.248 0.259,0.471 0.452,0.658c0.187,0.197 0.412,0.353 0.661,0.46c0.25,0.107 0.518,0.163 0.789,0.163c0.272,0 0.54,-0.056 0.789,-0.163c0.25,-0.107 0.474,-0.263 0.661,-0.46l9.39,-9.39l8.09,8.08c0.357,0.357 0.833,0.569 1.337,0.597c0.503,0.027 1,-0.132 1.393,-0.447l20.61,-16.67l-0.83,7.07c-0.059,0.539 0.097,1.08 0.434,1.505c0.337,0.425 0.828,0.7 1.366,0.765l0.24,0c0.498,0.003 0.978,-0.181 1.348,-0.513c0.37,-0.333 0.603,-0.792 0.652,-1.287l1.37,-11.7c0.053,-0.54 -0.1,-1.079 -0.43,-1.51c-0.165,-0.209 -0.37,-0.383 -0.604,-0.512c-0.233,-0.129 -0.49,-0.21 -0.756,-0.238l-11.7,-1.37c-0.54,-0.062 -1.083,0.093 -1.51,0.43c-0.337,0.237 -0.592,0.573 -0.731,0.96c-0.14,0.388 -0.155,0.81 -0.046,1.207c0.109,0.397 0.339,0.751 0.657,1.013c0.318,0.262 0.709,0.419 1.12,0.45l6.54,0.75l-0.37,0.31l-18.5,15.02Z" style="fill:#142924;fill-rule:nonzero;"/><rect x="20.29" y="58.875" width="48.67" height="4.08" style="fill:#142924;"/><path d="M74.91,11.245l-61.8,0c-1.326,0 -2.598,0.527 -3.535,1.464c-0.938,0.938 -1.465,2.21 -1.465,3.536l0,14.67l4.26,0l0,-14.67c0.003,-0.2 0.084,-0.391 0.226,-0.531c0.143,-0.14 0.334,-0.219 0.534,-0.219l61.8,0c0.2,0 0.392,0.079 0.534,0.219c0.142,0.14 0.224,0.331 0.226,0.531l0,55.51c0,0.202 -0.08,0.395 -0.222,0.538c-0.143,0.142 -0.336,0.222 -0.538,0.222l-61.8,0c-0.201,0 -0.395,-0.08 -0.537,-0.222c-0.143,-0.143 -0.223,-0.336 -0.223,-0.538l0,-18.65l-4.26,0l0,18.65c0,1.326 0.527,2.598 1.465,3.536c0.937,0.937 2.209,1.464 3.535,1.464l61.8,0c1.326,0 2.598,-0.527 3.536,-1.464c0.937,-0.938 1.464,-2.21 1.464,-3.536l0,-55.51c0,-1.326 -0.527,-2.598 -1.464,-3.536c-0.938,-0.937 -2.21,-1.464 -3.536,-1.464Z" style="fill:#142924;fill-rule:nonzero;"/><rect x="8.09" y="38.895" width="4.76" height="10.58" style="fill:#142924;"/></g><defs><linearGradient id="_Linear1" x1="0" y1="0" x2="1" y2="0" gradientUnits="userSpaceOnUse" gradientTransform="matrix(2.99426e-15,48.8999,-48.8999,2.99426e-15,45.7497,19.7351)"><stop offset="0" style="stop-color:#142924;stop-opacity:0.298039"/><stop offset="1" style="stop-color:#fff;stop-opacity:0"/></linearGradient></defs></svg>