<?xml version="1.0" encoding="UTF-8" standalone="no"?>
<!DOCTYPE svg PUBLIC "-//W3C//DTD SVG 1.1//EN" "http://www.w3.org/Graphics/SVG/1.1/DTD/svg11.dtd">
<svg width="100%" height="100%" viewBox="0 0 512 512" version="1.1" xmlns="http://www.w3.org/2000/svg" xmlns:xlink="http://www.w3.org/1999/xlink" xml:space="preserve" xmlns:serif="http://www.serif.com/" style="fill-rule:evenodd;clip-rule:evenodd;stroke-linejoin:round;stroke-miterlimit:2;">
    <g id="Icon">
        <path d="M85.333,144L426.667,144C435.499,144 442.667,136.832 442.667,128C442.667,119.168 435.499,112 426.667,112L85.333,112C76.501,112 69.333,119.168 69.333,128C69.333,136.832 76.501,144 85.333,144Z" style="fill:rgb(73,225,189);"/>
        <path d="M85.333,272L426.667,272C435.499,272 442.667,264.832 442.667,256C442.667,247.168 435.499,240 426.667,240L85.333,240C76.501,240 69.333,247.168 69.333,256C69.333,264.832 76.501,272 85.333,272Z" style="fill:rgb(73,225,189);"/>
        <path d="M85.333,400L426.667,400C435.499,400 442.667,392.832 442.667,384C442.667,375.168 435.499,368 426.667,368L85.333,368C76.501,368 69.333,375.168 69.333,384C69.333,392.832 76.501,400 85.333,400Z" style="fill:rgb(73,225,189);"/>
    </g>
</svg>
