<?xml version="1.0" encoding="UTF-8" standalone="no"?>
<!DOCTYPE svg PUBLIC "-//W3C//DTD SVG 1.1//EN" "http://www.w3.org/Graphics/SVG/1.1/DTD/svg11.dtd">
<svg width="100%" height="100%" viewBox="0 0 24 24" version="1.1" xmlns="http://www.w3.org/2000/svg" xmlns:xlink="http://www.w3.org/1999/xlink" xml:space="preserve" xmlns:serif="http://www.serif.com/" style="fill-rule:evenodd;clip-rule:evenodd;stroke-linejoin:round;stroke-miterlimit:2;">
    <g opacity="0.8">
        <path d="M12,24C18.627,24 24,18.627 24,12C24,5.373 18.627,0 12,0C5.373,0 0,5.373 0,12C0,18.627 5.373,24 12,24ZM9.939,7.03C10.473,7.006 10.643,7 12,7L11.999,7C13.358,7 13.527,7.006 14.061,7.03C14.592,7.054 14.956,7.139 15.275,7.263C15.609,7.388 15.911,7.585 16.161,7.839C16.415,8.089 16.612,8.391 16.738,8.725C16.861,9.043 16.945,9.406 16.97,9.938C16.994,10.472 17,10.642 17,12C17,13.358 16.994,13.528 16.97,14.061C16.945,14.594 16.861,14.957 16.738,15.275C16.609,15.604 16.439,15.883 16.161,16.161C15.911,16.415 15.609,16.612 15.276,16.738C14.958,16.861 14.593,16.945 14.061,16.97C13.528,16.994 13.358,17 12,17C10.642,17 10.472,16.994 9.938,16.97C9.406,16.946 9.043,16.861 8.724,16.738C8.396,16.61 8.117,16.439 7.839,16.161C7.561,15.883 7.391,15.604 7.263,15.275C7.139,14.957 7.055,14.594 7.03,14.061C7.006,13.528 7,13.358 7,12.001C7,10.642 7.006,10.472 7.03,9.938C7.054,9.406 7.139,9.043 7.263,8.725C7.388,8.391 7.585,8.089 7.839,7.839C8.089,7.585 8.391,7.388 8.725,7.263C9.043,7.139 9.406,7.055 9.939,7.03ZM12.001,7.901L11.552,7.901L11.552,7.9C10.62,7.901 10.441,7.907 9.98,7.928C9.493,7.951 9.228,8.032 9.052,8.101C8.818,8.191 8.652,8.299 8.477,8.474C8.302,8.649 8.193,8.816 8.102,9.049C8.034,9.226 7.952,9.491 7.93,9.978C7.906,10.505 7.901,10.663 7.901,11.998C7.901,13.333 7.906,13.491 7.93,14.018C7.952,14.506 8.034,14.771 8.102,14.946C8.182,15.164 8.31,15.36 8.477,15.521C8.638,15.687 8.835,15.815 9.052,15.895C9.228,15.964 9.493,16.045 9.98,16.067C10.507,16.091 10.666,16.097 12.001,16.097C13.336,16.097 13.494,16.091 14.021,16.067C14.509,16.045 14.774,15.964 14.949,15.895C15.182,15.804 15.349,15.696 15.524,15.521C15.69,15.36 15.818,15.164 15.898,14.947C15.966,14.771 16.048,14.506 16.07,14.019C16.094,13.492 16.099,13.333 16.099,11.999C16.099,10.664 16.094,10.506 16.07,9.979C16.048,9.492 15.967,9.227 15.898,9.051C15.807,8.818 15.699,8.651 15.524,8.476C15.349,8.301 15.182,8.193 14.949,8.102C14.773,8.034 14.508,7.952 14.021,7.93C13.494,7.906 13.336,7.901 12.001,7.901ZM14.44,8.777C14.513,8.747 14.591,8.731 14.669,8.731C14.829,8.731 14.981,8.794 15.094,8.907C15.206,9.02 15.269,9.172 15.269,9.331C15.269,9.49 15.206,9.643 15.094,9.756C14.981,9.868 14.829,9.931 14.669,9.931C14.591,9.931 14.513,9.916 14.44,9.886C14.367,9.855 14.301,9.811 14.245,9.756C14.189,9.7 14.145,9.634 14.115,9.561C14.085,9.488 14.069,9.41 14.069,9.331C14.069,9.252 14.085,9.174 14.115,9.102C14.145,9.029 14.189,8.963 14.245,8.907C14.301,8.851 14.367,8.807 14.44,8.777ZM11.006,9.616C11.322,9.49 11.66,9.427 12.001,9.432C12.675,9.443 13.318,9.718 13.791,10.199C14.264,10.679 14.529,11.326 14.529,12C14.529,12.675 14.264,13.322 13.791,13.802C13.318,14.282 12.675,14.558 12.001,14.568C11.66,14.573 11.322,14.511 11.006,14.384C10.689,14.258 10.402,14.069 10.159,13.83C9.916,13.591 9.723,13.307 9.592,12.992C9.46,12.678 9.392,12.341 9.392,12C9.392,11.66 9.46,11.323 9.592,11.008C9.723,10.694 9.916,10.409 10.159,10.17C10.402,9.931 10.689,9.743 11.006,9.616ZM13.179,10.821C12.867,10.509 12.443,10.333 12.001,10.333C11.559,10.333 11.135,10.509 10.822,10.821C10.509,11.134 10.334,11.558 10.334,12C10.334,12.442 10.509,12.866 10.822,13.179C11.135,13.491 11.559,13.667 12.001,13.667C12.443,13.667 12.867,13.491 13.179,13.179C13.492,12.866 13.668,12.442 13.668,12C13.668,11.558 13.492,11.134 13.179,10.821Z" style="fill:white;"/>
    </g>
</svg>
