<?xml version="1.0" encoding="UTF-8" standalone="no"?>
<!DOCTYPE svg PUBLIC "-//W3C//DTD SVG 1.1//EN" "http://www.w3.org/Graphics/SVG/1.1/DTD/svg11.dtd">
<svg width="100%" height="100%" viewBox="0 0 21 12" version="1.1" xmlns="http://www.w3.org/2000/svg" xmlns:xlink="http://www.w3.org/1999/xlink" xml:space="preserve" xmlns:serif="http://www.serif.com/" style="fill-rule:evenodd;clip-rule:evenodd;stroke-linejoin:round;stroke-miterlimit:2;">
    <g transform="matrix(-1,0,0,1,21,0)">
        <path d="M0,6C0,5.801 0.079,5.61 0.22,5.47C0.36,5.329 0.551,5.25 0.75,5.25L18.438,5.25L15.218,2.031C15.078,1.891 14.998,1.7 14.998,1.5C14.998,1.301 15.078,1.11 15.218,0.97C15.359,0.829 15.55,0.75 15.749,0.75C15.948,0.75 16.139,0.829 16.28,0.97L20.78,5.469C20.85,5.539 20.905,5.621 20.943,5.713C20.981,5.804 21,5.901 21,6C21,6.099 20.981,6.196 20.943,6.287C20.905,6.379 20.85,6.461 20.78,6.531L16.28,11.03C16.139,11.171 15.948,11.25 15.749,11.25C15.55,11.25 15.359,11.171 15.218,11.03C15.078,10.89 14.998,10.699 14.998,10.5C14.998,10.3 15.078,10.109 15.218,9.969L18.438,6.75L0.75,6.75C0.551,6.75 0.36,6.671 0.22,6.53C0.079,6.39 -0,6.199 -0,6Z" style="fill:rgb(73,225,189);"/>
    </g>
</svg>
