<?xml version="1.0" encoding="UTF-8" standalone="no"?>
<!DOCTYPE svg PUBLIC "-//W3C//DTD SVG 1.1//EN" "http://www.w3.org/Graphics/SVG/1.1/DTD/svg11.dtd">
<svg width="100%" height="100%" viewBox="0 0 40 40" version="1.1" xmlns="http://www.w3.org/2000/svg" xmlns:xlink="http://www.w3.org/1999/xlink" xml:space="preserve" xmlns:serif="http://www.serif.com/" style="fill-rule:evenodd;clip-rule:evenodd;stroke-linejoin:round;stroke-miterlimit:2;">
    <path d="M8.75,6.667L31.25,6.667C32.633,6.667 33.965,7.196 34.97,8.146C35.976,9.096 36.58,10.395 36.658,11.777L36.667,12.083L36.667,27.917C36.667,29.3 36.137,30.632 35.187,31.637C34.237,32.643 32.938,33.247 31.557,33.325L31.25,33.333L8.75,33.333C7.366,33.334 6.035,32.804 5.03,31.854C4.024,30.904 3.42,29.605 3.342,28.223L3.333,27.917L3.333,12.083C3.333,10.7 3.863,9.369 4.813,8.363C5.763,7.357 7.062,6.753 8.443,6.675L8.75,6.667L31.25,6.667L8.75,6.667ZM34.167,15.622L20.583,22.772C20.43,22.853 20.261,22.901 20.088,22.913C19.915,22.926 19.742,22.902 19.578,22.843L19.418,22.773L5.833,15.623L5.833,27.917C5.833,28.649 6.109,29.354 6.604,29.892C7.1,30.431 7.78,30.763 8.51,30.823L8.75,30.833L31.25,30.833C31.982,30.833 32.688,30.558 33.226,30.062C33.765,29.566 34.097,28.885 34.157,28.155L34.167,27.917L34.167,15.622ZM31.25,9.167L8.75,9.167C8.018,9.167 7.313,9.442 6.774,9.938C6.236,10.434 5.904,11.114 5.843,11.843L5.833,12.083L5.833,12.798L20,20.253L34.167,12.797L34.167,12.083C34.167,11.351 33.891,10.646 33.395,10.107C32.899,9.569 32.218,9.237 31.488,9.177L31.25,9.167Z" style="fill:rgb(73,225,189);fill-rule:nonzero;"/>
</svg>
