<?xml version="1.0" encoding="UTF-8" standalone="no"?>
<!DOCTYPE svg PUBLIC "-//W3C//DTD SVG 1.1//EN" "http://www.w3.org/Graphics/SVG/1.1/DTD/svg11.dtd">
<svg width="100%" height="100%" viewBox="0 0 20 20" version="1.1" xmlns="http://www.w3.org/2000/svg" xmlns:xlink="http://www.w3.org/1999/xlink" xml:space="preserve" xmlns:serif="http://www.serif.com/" style="fill-rule:evenodd;clip-rule:evenodd;stroke-linejoin:round;stroke-miterlimit:2;">
    <path d="M4.375,3.334L15.625,3.334C16.317,3.333 16.982,3.598 17.485,4.073C17.988,4.548 18.29,5.198 18.329,5.888L18.333,6.042L18.333,13.959C18.333,14.65 18.069,15.316 17.594,15.819C17.119,16.322 16.469,16.624 15.778,16.663L15.625,16.667L4.375,16.667C3.683,16.667 3.018,16.402 2.515,15.927C2.012,15.452 1.71,14.803 1.671,14.112L1.667,13.959L1.667,6.042C1.667,5.35 1.931,4.684 2.406,4.182C2.882,3.679 3.531,3.377 4.222,3.338L4.375,3.334L15.625,3.334L4.375,3.334ZM17.083,7.811L10.292,11.386C10.215,11.427 10.131,11.451 10.044,11.457C9.958,11.463 9.871,11.451 9.789,11.422L9.709,11.387L2.917,7.812L2.917,13.959C2.917,14.325 3.054,14.677 3.302,14.946C3.55,15.216 3.89,15.382 4.255,15.412L4.375,15.417L15.625,15.417C15.991,15.417 16.344,15.279 16.613,15.031C16.882,14.783 17.048,14.443 17.078,14.078L17.083,13.959L17.083,7.811ZM15.625,4.584L4.375,4.584C4.009,4.584 3.656,4.721 3.387,4.969C3.118,5.217 2.952,5.557 2.922,5.922L2.917,6.042L2.917,6.399L10,10.127L17.083,6.399L17.083,6.042C17.083,5.676 16.946,5.323 16.698,5.054C16.449,4.784 16.109,4.618 15.744,4.589L15.625,4.584Z" style="fill:rgb(209,212,223);fill-rule:nonzero;"/>
</svg>
