<?xml version="1.0" encoding="UTF-8" standalone="no"?><!DOCTYPE svg PUBLIC "-//W3C//DTD SVG 1.1//EN" "http://www.w3.org/Graphics/SVG/1.1/DTD/svg11.dtd"><svg width="100%" height="100%" viewBox="0 0 88 88" version="1.1" xmlns="http://www.w3.org/2000/svg" xmlns:xlink="http://www.w3.org/1999/xlink" xml:space="preserve" xmlns:serif="http://www.serif.com/" style="fill-rule:evenodd;clip-rule:evenodd;stroke-linejoin:round;stroke-miterlimit:1.41421;"><g><path d="M44.45,71.27c13.503,0 24.45,-10.947 24.45,-24.45c0,-13.503 -10.947,-24.45 -24.45,-24.45c-13.503,0 -24.45,10.947 -24.45,24.45c0,13.503 10.947,24.45 24.45,24.45Z" style="fill:url(#_Linear1);fill-rule:nonzero;"/><path d="M44,63.5l-14.844,-20.962c-2.43,-2.869 -3.995,-6.369 -4.512,-10.093c-0.518,-3.724 0.033,-7.518 1.589,-10.94c1.555,-3.423 4.051,-6.333 7.197,-8.392c3.145,-2.059 6.811,-3.182 10.57,-3.238c5.211,0.051 10.189,2.166 13.844,5.88c3.654,3.715 5.688,8.726 5.656,13.937c0.002,4.546 -1.546,8.956 -4.388,12.504l-15.112,21.304Zm0,-48.75c-3.92,0.045 -7.662,1.644 -10.404,4.445c-2.742,2.802 -4.26,6.577 -4.221,10.497c0.016,3.578 1.303,7.033 3.632,9.75l10.993,15.575l11.286,-15.892c2.145,-2.678 3.322,-6.002 3.339,-9.433c0.039,-3.92 -1.479,-7.695 -4.221,-10.497c-2.742,-2.801 -6.484,-4.4 -10.404,-4.445Z" style="fill:#142924;fill-rule:nonzero;"/><path d="M44,31.813c2.692,-0.001 4.875,-2.183 4.875,-4.876c0,-2.692 -2.183,-4.875 -4.875,-4.875c-2.692,0 -4.875,2.183 -4.875,4.875c0,2.693 2.183,4.875 4.875,4.875l0,0.001Z" style="fill:#142924;fill-rule:nonzero;"/><path d="M73.25,34.25l-4.875,0l0,4.875l4.875,0l0,34.125l-58.5,0l0,-34.125l4.875,0l0,-4.875l-4.875,0c-1.293,0 -2.533,0.514 -3.447,1.428c-0.914,0.914 -1.428,2.154 -1.428,3.447l0,34.125c0,1.293 0.514,2.533 1.428,3.447c0.914,0.914 2.154,1.428 3.447,1.428l58.5,0c1.293,0 2.533,-0.514 3.447,-1.428c0.914,-0.914 1.428,-2.154 1.428,-3.447l0,-34.125c0,-1.293 -0.514,-2.533 -1.428,-3.447c-0.914,-0.914 -2.154,-1.428 -3.447,-1.428Z" style="fill:#142924;fill-rule:nonzero;"/></g><defs><linearGradient id="_Linear1" x1="0" y1="0" x2="1" y2="0" gradientUnits="userSpaceOnUse" gradientTransform="matrix(2.99426e-15,48.8999,-48.8999,2.99426e-15,44.45,22.37)"><stop offset="0" style="stop-color:#142924;stop-opacity:0.2"/><stop offset="1" style="stop-color:#fff;stop-opacity:0"/></linearGradient></defs></svg>