<?xml version="1.0" encoding="UTF-8" standalone="no"?>
<!DOCTYPE svg PUBLIC "-//W3C//DTD SVG 1.1//EN" "http://www.w3.org/Graphics/SVG/1.1/DTD/svg11.dtd">
<svg width="100%" height="100%" viewBox="0 0 18 18" version="1.1" xmlns="http://www.w3.org/2000/svg" xmlns:xlink="http://www.w3.org/1999/xlink" xml:space="preserve" xmlns:serif="http://www.serif.com/" style="fill-rule:evenodd;clip-rule:evenodd;stroke-linecap:round;stroke-linejoin:round;">
    <path d="M1.868,7.029L15.93,1.707C15.981,1.687 16.036,1.683 16.089,1.694C16.142,1.705 16.191,1.732 16.229,1.77C16.268,1.809 16.294,1.857 16.306,1.911C16.317,1.964 16.313,2.019 16.293,2.07L10.971,16.132C10.95,16.186 10.913,16.231 10.865,16.263C10.817,16.295 10.761,16.311 10.703,16.31C10.646,16.308 10.59,16.29 10.544,16.256C10.497,16.222 10.462,16.175 10.444,16.12L8.074,10.281C8.046,10.198 8,10.123 7.938,10.062C7.877,10 7.801,9.953 7.719,9.926L1.879,7.558C1.824,7.54 1.776,7.505 1.742,7.459C1.708,7.412 1.688,7.356 1.687,7.298C1.686,7.24 1.702,7.183 1.735,7.135C1.767,7.087 1.813,7.05 1.868,7.029Z" style="fill:none;fill-rule:nonzero;stroke:black;stroke-width:1.2px;"/>
    <path d="M16.172,1.828L7.98,10.02" style="fill:none;fill-rule:nonzero;stroke:black;stroke-width:1.2px;"/>
</svg>
