<?xml version="1.0" encoding="UTF-8" standalone="no"?><!DOCTYPE svg PUBLIC "-//W3C//DTD SVG 1.1//EN" "http://www.w3.org/Graphics/SVG/1.1/DTD/svg11.dtd"><svg width="100%" height="100%" viewBox="0 0 88 88" version="1.1" xmlns="http://www.w3.org/2000/svg" xmlns:xlink="http://www.w3.org/1999/xlink" xml:space="preserve" xmlns:serif="http://www.serif.com/" style="fill-rule:evenodd;clip-rule:evenodd;stroke-linejoin:round;stroke-miterlimit:1.41421;"><g><path d="M40.245,69.425c12.067,0 21.85,-9.783 21.85,-21.85c0,-12.067 -9.783,-21.85 -21.85,-21.85c-12.067,0 -21.85,9.783 -21.85,21.85c0,12.067 9.783,21.85 21.85,21.85Z" style="fill:url(#_Linear1);fill-rule:nonzero;"/><rect x="57.595" y="37.415" width="4.24" height="4.24" style="fill:#49e1bd;fill-rule:nonzero;"/><path d="M62.035,37.215l-4.64,0l0,4.65l4.64,0l0,-4.65Zm-0.1,4.55l-4.44,0l0,-4.45l4.44,0l0,4.45Z" style="fill:#e2e2e2;fill-rule:nonzero;"/><path d="M57.495,41.765l4.44,0l0,-4.45l-4.44,0l0,4.45Zm0.1,-4.35l4.21,0l0,4.25l-4.24,0l0.03,-4.25Z" style="fill:#49e1bd;fill-rule:nonzero;"/><path d="M38.625,32.775c3.153,-0.091 6.146,-1.407 8.344,-3.669c2.198,-2.262 3.428,-5.292 3.428,-8.446c0,-3.154 -1.23,-6.184 -3.428,-8.446c-2.198,-2.262 -5.191,-3.578 -8.344,-3.669c-1.596,0.004 -3.176,0.32 -4.65,0.93c-2.59,1.072 -4.728,3.008 -6.05,5.48c-1.322,2.472 -1.745,5.326 -1.197,8.075c0.547,2.749 2.031,5.223 4.199,7c2.168,1.777 4.885,2.747 7.688,2.745l0.01,0Zm0,-20c1.556,0 3.078,0.461 4.372,1.326c1.294,0.865 2.303,2.094 2.899,3.532c0.595,1.438 0.751,3.021 0.447,4.547c-0.303,1.527 -1.053,2.929 -2.153,4.03c-1.101,1.101 -2.503,1.85 -4.03,2.154c-1.527,0.303 -3.109,0.148 -4.547,-0.448c-1.438,-0.596 -2.667,-1.604 -3.532,-2.899c-0.865,-1.294 -1.326,-2.815 -1.326,-4.372c0.008,-2.083 0.84,-4.078 2.315,-5.549c1.474,-1.471 3.472,-2.298 5.555,-2.301l0,-0.02Z" style="fill:#49e1bd;fill-rule:nonzero;"/><path d="M24.105,27.405c-0.011,-0.374 -0.121,-0.738 -0.318,-1.055c-0.197,-0.318 -0.475,-0.578 -0.805,-0.753c-0.33,-0.176 -0.7,-0.261 -1.074,-0.247c-0.374,0.013 -0.737,0.126 -1.053,0.325c-3.762,2.32 -6.862,5.571 -9,9.44l3.52,2.43c1.782,-3.398 4.445,-6.254 7.71,-8.27c0.321,-0.192 0.585,-0.467 0.765,-0.796c0.179,-0.329 0.267,-0.7 0.255,-1.074Z" style="fill:#49e1bd;fill-rule:nonzero;"/><path d="M15.495,37.735c1.773,-3.407 4.433,-6.271 7.7,-8.29c0.344,-0.207 0.627,-0.501 0.821,-0.852c0.195,-0.351 0.295,-0.747 0.289,-1.148c-0.008,-0.41 -0.126,-0.81 -0.34,-1.159c-0.215,-0.349 -0.518,-0.636 -0.879,-0.829c-0.362,-0.193 -0.768,-0.287 -1.178,-0.272c-0.409,0.016 -0.807,0.14 -1.153,0.36c-3.822,2.351 -6.962,5.66 -9.11,9.6l-0.05,0.08l3.85,2.65l0.05,-0.14Zm-3.77,-2.58c2.139,-3.928 5.27,-7.228 9.08,-9.57c0.332,-0.209 0.713,-0.326 1.104,-0.34c0.392,-0.015 0.78,0.075 1.126,0.26c0.345,0.187 0.635,0.461 0.842,0.794c0.207,0.333 0.323,0.714 0.338,1.106c0.018,0.399 -0.072,0.795 -0.26,1.147c-0.188,0.352 -0.468,0.647 -0.81,0.853c-3.29,2.017 -5.964,4.898 -7.73,8.33l-3.69,-2.58Z" style="fill:#e2e2e2;fill-rule:nonzero;"/><path d="M23.145,29.365c0.342,-0.206 0.621,-0.501 0.81,-0.853c0.188,-0.352 0.278,-0.748 0.26,-1.147c-0.015,-0.392 -0.132,-0.773 -0.338,-1.106c-0.207,-0.333 -0.497,-0.607 -0.842,-0.794c-0.346,-0.185 -0.734,-0.275 -1.126,-0.261c-0.391,0.014 -0.772,0.132 -1.104,0.341c-3.81,2.342 -6.941,5.642 -9.08,9.57l3.69,2.54c1.772,-3.417 4.445,-6.284 7.73,-8.29Zm-7.77,8.18l-3.52,-2.43c2.138,-3.869 5.238,-7.12 9,-9.44c0.236,-0.163 0.504,-0.277 0.785,-0.334c0.282,-0.057 0.572,-0.056 0.853,0.003c0.282,0.059 0.548,0.174 0.783,0.339c0.235,0.165 0.435,0.376 0.586,0.62c0.151,0.244 0.252,0.517 0.294,0.801c0.043,0.284 0.028,0.574 -0.045,0.852c-0.073,0.278 -0.201,0.538 -0.377,0.765c-0.177,0.226 -0.397,0.415 -0.649,0.554c-3.265,2.016 -5.927,4.872 -7.71,8.27Z" style="fill:#e2e2e2;fill-rule:nonzero;"/><path d="M77.485,41.865l-4,0l0,-0.09c-1.28,-6.86 -4.07,-11.38 -8.79,-14.24l-0.07,0l0,-0.08l3.71,-9.16c0.12,-0.298 0.171,-0.62 0.148,-0.941c-0.023,-0.321 -0.118,-0.632 -0.279,-0.911c-0.161,-0.278 -0.383,-0.516 -0.65,-0.696c-0.266,-0.18 -0.57,-0.297 -0.889,-0.342c-1.08,-0.15 -10.71,-1.23 -13.38,5.73c-0.131,0.348 -0.17,0.724 -0.111,1.091c0.059,0.367 0.213,0.712 0.446,1.001c0.234,0.289 0.539,0.512 0.885,0.647c0.347,0.135 0.723,0.176 1.09,0.121c0.368,-0.06 0.714,-0.216 1.003,-0.451c0.29,-0.235 0.513,-0.541 0.647,-0.889c0.88,-2.29 3.67,-3 5.85,-3.11l0.16,0l-0.06,0.15l-3.23,8c-0.031,0.108 -0.051,0.218 -0.06,0.33c-0.048,0.149 -0.078,0.304 -0.09,0.46c0.011,0.118 0.031,0.235 0.06,0.35c0.018,0.149 0.048,0.296 0.09,0.44c0.14,0.233 0.29,0.463 0.45,0.69c0.093,0.08 0.193,0.151 0.3,0.21c0.106,0.093 0.22,0.177 0.34,0.25c4.87,2.23 7.42,6.39 8.51,13.91c0.078,0.503 0.332,0.962 0.717,1.295c0.384,0.333 0.874,0.519 1.383,0.525l3.68,0l0,9l-5.69,0c-0.529,-0.004 -1.04,0.191 -1.431,0.547c-0.391,0.356 -0.634,0.846 -0.679,1.373c-0.306,2.205 -1.269,4.267 -2.764,5.917c-1.494,1.65 -3.451,2.812 -5.616,3.333c-0.067,0.025 -0.131,0.059 -0.19,0.1c-0.167,0.052 -0.326,0.13 -0.47,0.23c-0.094,0.068 -0.181,0.145 -0.26,0.23c-0.105,0.102 -0.202,0.213 -0.29,0.33c-0.074,0.123 -0.134,0.254 -0.18,0.39c-0.053,0.085 -0.097,0.175 -0.13,0.27l-1.84,7.28l-5.7,0l0,-0.07l-1.72,-5.14c-0.139,-0.421 -0.406,-0.788 -0.766,-1.048c-0.359,-0.261 -0.79,-0.401 -1.234,-0.402l-8.88,0c-0.443,0.001 -0.875,0.141 -1.234,0.402c-0.359,0.26 -0.627,0.627 -0.766,1.048l-1.7,5.21l-5.7,0l0,-0.08l-1.81,-7.19c0.004,-0.027 0.004,-0.053 0,-0.08c-0.052,-0.153 -0.119,-0.3 -0.2,-0.44c-0.053,-0.107 -0.113,-0.211 -0.18,-0.31l-0.28,-0.25c-0.117,-0.099 -0.24,-0.189 -0.37,-0.27c-4.147,-2.005 -7.543,-5.285 -9.69,-9.36l-3.77,1.93c2.385,4.576 6.102,8.321 10.66,10.74l2,8c0.114,0.46 0.379,0.869 0.752,1.16c0.374,0.292 0.834,0.451 1.308,0.45l8.88,0c0.443,-0.002 0.874,-0.144 1.233,-0.404c0.359,-0.26 0.627,-0.626 0.767,-1.046l1.74,-5.21l5.82,0l0,0.07l1.72,5.14c0.139,0.421 0.407,0.788 0.766,1.048c0.359,0.261 0.791,0.401 1.234,0.402l8.88,0c0.474,0.001 0.934,-0.158 1.308,-0.45c0.373,-0.291 0.638,-0.7 0.752,-1.16l1.94,-7.78c2.386,-0.793 4.536,-2.17 6.254,-4.006c1.719,-1.835 2.951,-4.071 3.586,-6.504l0,-0.07l6.08,0c0.277,0 0.551,-0.055 0.807,-0.161c0.256,-0.107 0.488,-0.263 0.683,-0.459c0.4,-0.397 0.627,-0.936 0.63,-1.5l0,-13.33c-0.005,-0.56 -0.23,-1.095 -0.627,-1.49c-0.397,-0.395 -0.933,-0.617 -1.493,-0.62l0,-0.06Z" style="fill:#49e1bd;fill-rule:nonzero;"/><path d="M10.745,43.645c-0.425,0 -0.841,0.126 -1.194,0.362c-0.354,0.237 -0.629,0.572 -0.792,0.965c-0.163,0.393 -0.206,0.825 -0.123,1.242c0.083,0.418 0.288,0.801 0.589,1.101c0.301,0.301 0.684,0.506 1.101,0.589c0.417,0.083 0.849,0.04 1.242,-0.123c0.393,-0.162 0.729,-0.438 0.965,-0.792c0.236,-0.353 0.362,-0.769 0.362,-1.194c0,-0.57 -0.226,-1.117 -0.63,-1.52c-0.403,-0.403 -0.95,-0.63 -1.52,-0.63Z" style="fill:#49e1bd;fill-rule:nonzero;"/><path d="M13.095,45.795c0.002,-0.465 -0.134,-0.921 -0.391,-1.308c-0.257,-0.388 -0.624,-0.691 -1.053,-0.87c-0.429,-0.18 -0.902,-0.228 -1.358,-0.138c-0.457,0.09 -0.877,0.312 -1.206,0.641c-0.33,0.328 -0.555,0.747 -0.646,1.203c-0.092,0.456 -0.046,0.929 0.132,1.359c0.177,0.43 0.479,0.798 0.865,1.056c0.387,0.259 0.842,0.397 1.307,0.397c0.621,0 1.218,-0.246 1.658,-0.685c0.441,-0.438 0.689,-1.033 0.692,-1.655Zm-2.35,2.24c-0.446,0 -0.881,-0.132 -1.251,-0.38c-0.37,-0.248 -0.659,-0.6 -0.829,-1.011c-0.17,-0.412 -0.214,-0.865 -0.126,-1.302c0.088,-0.436 0.303,-0.837 0.619,-1.151c0.315,-0.315 0.717,-0.528 1.154,-0.614c0.437,-0.086 0.89,-0.04 1.301,0.132c0.411,0.172 0.762,0.462 1.008,0.833c0.246,0.372 0.376,0.808 0.374,1.253c0,0.295 -0.058,0.587 -0.172,0.86c-0.113,0.272 -0.279,0.519 -0.488,0.727c-0.209,0.209 -0.457,0.373 -0.73,0.485c-0.273,0.112 -0.565,0.169 -0.86,0.168Z" style="fill:#e2e2e2;fill-rule:nonzero;"/><path d="M10.745,43.545c-0.445,0 -0.88,0.132 -1.25,0.379c-0.37,0.247 -0.659,0.599 -0.829,1.01c-0.17,0.411 -0.215,0.864 -0.128,1.3c0.087,0.436 0.301,0.837 0.616,1.152c0.314,0.315 0.715,0.529 1.152,0.616c0.436,0.087 0.888,0.042 1.3,-0.128c0.411,-0.171 0.762,-0.459 1.009,-0.829c0.248,-0.37 0.38,-0.805 0.38,-1.25c0,-0.597 -0.237,-1.169 -0.659,-1.591c-0.422,-0.422 -0.995,-0.659 -1.591,-0.659Zm0,4.39c-0.426,0 -0.842,-0.126 -1.196,-0.363c-0.354,-0.237 -0.629,-0.573 -0.792,-0.967c-0.162,-0.393 -0.204,-0.826 -0.12,-1.243c0.083,-0.417 0.289,-0.801 0.591,-1.101c0.302,-0.3 0.686,-0.504 1.103,-0.586c0.418,-0.082 0.851,-0.038 1.243,0.126c0.393,0.165 0.728,0.442 0.963,0.797c0.235,0.355 0.36,0.771 0.358,1.197c0,0.282 -0.056,0.561 -0.164,0.821c-0.108,0.261 -0.267,0.497 -0.467,0.696c-0.2,0.199 -0.437,0.356 -0.697,0.463c-0.261,0.107 -0.541,0.161 -0.822,0.16Z" style="fill:#49e1bd;fill-rule:nonzero;"/></g><defs><linearGradient id="_Linear1" x1="0" y1="0" x2="1" y2="0" gradientUnits="userSpaceOnUse" gradientTransform="matrix(2.67586e-15,43.7001,-43.7001,2.67586e-15,40.2449,25.7249)"><stop offset="0" style="stop-color:#49e1bd;stop-opacity:0.3"/><stop offset="1" style="stop-color:#fff;stop-opacity:0"/></linearGradient></defs></svg>