<?xml version="1.0" encoding="UTF-8" standalone="no"?>
<!DOCTYPE svg PUBLIC "-//W3C//DTD SVG 1.1//EN" "http://www.w3.org/Graphics/SVG/1.1/DTD/svg11.dtd">
<svg width="100%" height="100%" viewBox="0 0 24 24" version="1.1" xmlns="http://www.w3.org/2000/svg" xmlns:xlink="http://www.w3.org/1999/xlink" xml:space="preserve" xmlns:serif="http://www.serif.com/" style="fill-rule:evenodd;clip-rule:evenodd;stroke-linejoin:round;stroke-miterlimit:2;">
    <path d="M12,0C5.372,0 0,5.372 0,12C0,18.628 5.372,24 12,24C18.628,24 24,18.628 24,12C24,5.372 18.628,0 12,0ZM16.881,9.83C16.886,9.932 16.888,10.035 16.888,10.135C16.888,13.26 14.511,16.861 10.164,16.861C8.879,16.863 7.621,16.494 6.541,15.799C6.725,15.821 6.914,15.83 7.105,15.83C8.213,15.83 9.231,15.454 10.04,14.819C9.547,14.809 9.07,14.646 8.674,14.352C8.278,14.058 7.984,13.648 7.832,13.179C8.186,13.246 8.551,13.232 8.899,13.137C8.364,13.029 7.883,12.74 7.537,12.317C7.192,11.895 7.003,11.366 7.003,10.82L7.003,10.791C7.321,10.968 7.686,11.075 8.074,11.088C7.572,10.754 7.217,10.241 7.081,9.654C6.945,9.067 7.039,8.45 7.343,7.93C7.936,8.66 8.677,9.257 9.516,9.683C10.355,10.109 11.274,10.353 12.214,10.401C12.094,9.894 12.146,9.362 12.36,8.887C12.574,8.412 12.94,8.021 13.399,7.775C13.858,7.529 14.386,7.442 14.9,7.527C15.414,7.612 15.886,7.864 16.241,8.245C16.77,8.14 17.278,7.946 17.741,7.671C17.565,8.219 17.196,8.684 16.703,8.98C17.171,8.924 17.629,8.798 18.06,8.606C17.743,9.081 17.344,9.496 16.881,9.83Z" style="fill:white;fill-opacity:0.8;fill-rule:nonzero;"/>
</svg>
